HIERARCHY
ROOT Hips
{
  OFFSET 0 0 0
  CHANNELS 6 Xposition Yposition Zposition Zrotation Yrotation Xrotation
  JOINT LeftThigh
  {
    OFFSET 8.409438 0 -5.917753
    CHANNELS 3 Zrotation Yrotation Xrotation
    JOINT LeftLeg
    {
      OFFSET 0 0 -42.358652
      CHANNELS 3 Zrotation Yrotation Xrotation
      JOINT LeftFoot
      {
        OFFSET 0 0 -39.357303
        CHANNELS 3 Zrotation Yrotation Xrotation
      }
    }
  }
  JOINT RightThigh
  {
    OFFSET -8.409438 0 -5.917753
    CHANNELS 3 Zrotation Yrotation Xrotation
    JOINT RightLeg
    {
      OFFSET 0 0 -42.358652
      CHANNELS 3 Zrotation Yrotation Xrotation
      JOINT RightFoot
      {
        OFFSET 0 0 -39.357303
        CHANNELS 3 Zrotation Yrotation Xrotation
      }
    }
  }
  JOINT SpineLow
  {
    OFFSET 0 0 4.719101
    CHANNELS 3 Zrotation Yrotation Xrotation
    JOINT SpineMid
    {
      OFFSET 0 0 12.899191
      CHANNELS 3 Zrotation Yrotation Xrotation
      JOINT Chest
      {
        OFFSET 0 0 12.899191
        CHANNELS 3 Zrotation Yrotation Xrotation
        JOINT LeftShoulder
        {
          OFFSET 7.550562 1.41573 9.438202
          CHANNELS 3 Zrotation Yrotation Xrotation
          JOINT LeftArm
          {
            OFFSET 9.155056 0 4.247191
            CHANNELS 3 Zrotation Yrotation Xrotation
            JOINT LeftForearm
            {
              OFFSET 0 0 25.771955
              CHANNELS 3 Zrotation Yrotation Xrotation
              JOINT LeftHand
              {
                OFFSET 0 0 25.197169
                CHANNELS 3 Zrotation Yrotation Xrotation
              }
            }
          }
        }
        JOINT RightShoulder
        {
          OFFSET -7.550562 1.41573 9.438202
          CHANNELS 3 Zrotation Yrotation Xrotation
          JOINT RightArm
          {
            OFFSET -9.155056 0 4.247191
            CHANNELS 3 Zrotation Yrotation Xrotation
            JOINT RightForearm
            {
              OFFSET 0 0 -25.771955
              CHANNELS 3 Zrotation Yrotation Xrotation
              JOINT RightHand
              {
                OFFSET 0 0 -25.197169
                CHANNELS 3 Zrotation Yrotation Xrotation
              }
            }
          }
        }
        JOINT Neck
        {
          OFFSET 0 0 15.101124
          CHANNELS 3 Zrotation Yrotation Xrotation
          JOINT Head
          {
            OFFSET 0 0 11.325843
            CHANNELS 3 Zrotation Yrotation Xrotation
            End Site
            {
              OFFSET 0 0 14.157303
            }
          }
        }
      }
    }
  }
}
MOTION
Frames: 8
Frame Time: 0.0
0.0  89.887642  0.0  6.452864  -36.62913  -105.224033  22.940886  -14.717465  10.771924  -0.369045  3.705965  24.100195  -0.915109  -1.889583  0.439612  6.338046  8.401549  -8.09404  0.10889  5.321769  19.034948  3.502112  1.568889  -0.805496  -1.966713  0.245263  1.969526  -5.352002  0.8294  5.359726  -5.352002  0.8294  5.359726  -33.981233  0.430419  -5.372876  0.149093  62.270474  67.103634  -29.904094  -23.026461  111.206718  102.752694  -14.646767  -8.200581  -31.852001  -3.357594  17.156529  59.91686  16.026211  46.722445  14.979625  -20.682249  -111.581012  67.542712  12.117042  -24.831524  11.875779  3.998274  2.081697  8.889706  3.040543  1.483481  
0.0  89.887642  0.0  6.460106  -36.478752  -105.034168  22.93204  -14.731825  10.641373  -0.31039  3.818637  24.046964  -1.028397  -1.878689  0.371722  6.092199  8.397948  -8.18551  0.389149  5.281976  19.005102  3.407912  1.578512  -0.782796  -1.98885  0.240542  1.950255  -5.413118  0.816732  5.307152  -5.413118  0.816732  5.307152  -33.526676  0.339589  -5.403625  0.154631  62.210574  67.18076  -29.842093  -22.883999  111.340817  102.638076  -14.424347  -8.109744  -31.579759  -3.332744  17.071342  59.981428  16.136275  46.63739  14.861814  -20.623194  -111.519552  67.702532  11.897  -25.017502  11.958258  4.047383  2.087194  8.951248  3.077799  1.486091  
0.0  89.887642  0.0  6.475805  -36.30911  -104.979934  22.932659  -14.791875  10.623921  -0.429716  3.946809  23.920072  -1.048068  -1.910814  0.385807  5.705302  8.426677  -8.248294  0.653094  5.248911  19.000633  3.406044  1.59824  -0.770856  -1.997914  0.243615  1.950793  -5.437626  0.825888  5.308246  -5.437627  0.825888  5.308246  -33.208799  0.198091  -5.4308  0.272409  62.172668  67.279623  -29.794056  -22.690462  111.28608  102.546448  -14.424134  -8.053855  -31.489225  -3.33014  17.038966  60.150345  16.265899  46.547894  14.707028  -20.575168  -111.440734  67.820809  11.639267  -25.237694  11.928074  4.061265  2.085103  8.928559  3.088064  1.484443  
0.0  89.887642  0.0  6.425567  -36.02896  -104.715291  22.795149  -14.880342  10.39032  -0.438878  4.159837  23.874643  -1.107848  -1.887268  0.344328  4.993145  8.347918  -8.469973  1.155824  5.298109  18.979079  3.350711  1.604755  -0.771249  -2.034754  0.234073  1.932517  -5.539261  0.801266  5.258593  -5.539261  0.801266  5.258593  -32.773164  0.071846  -5.517152  0.342506  62.147579  67.424092  -29.684501  -22.514238  111.279164  102.4453  -14.419478  -8.226465  -31.294595  -3.34703  16.933804  60.219584  16.432353  46.413927  14.542055  -20.74447  -111.61837  68.148661  11.078051  -25.481309  12.000365  4.119135  2.07098  8.982543  3.131472  1.472215  
0.0  89.887642  0.0  6.409777  -35.818921  -104.662365  22.814107  -14.961278  10.372443  -0.578512  4.267522  23.753136  -1.147656  -1.909903  0.359067  4.673956  8.361989  -8.460093  1.244681  5.323835  18.949306  3.38243  1.629111  -0.79036  -2.043998  0.237283  1.938839  -5.564173  0.811289  5.275465  -5.564173  0.811289  5.275465  -32.457523  -0.053221  -5.561617  0.417113  62.125618  67.506827  -29.636975  -22.382564  111.227238  102.401193  -14.438983  -8.23793  -31.242635  -3.372711  16.897935  60.44852  16.599766  46.3195  14.391841  -20.699512  -111.566851  68.274625  10.856467  -25.577046  11.950789  4.126254  2.051818  8.945465  3.136258  1.458031  
0.0  89.887642  0.0  6.34545  -35.529469  -104.406971  22.830655  -15.034349  10.196415  -0.834678  4.418712  23.557866  -1.106737  -1.839184  0.394212  4.04497  8.357361  -8.732692  1.488306  5.387762  18.9497  3.433589  1.650243  -0.767358  -2.06192  0.235053  1.929177  -5.613437  0.805812  5.249009  -5.613437  0.805812  5.249009  -32.08705  -0.189654  -5.63909  0.356169  62.130874  67.544532  -29.514117  -22.243875  111.154772  102.336773  -14.486962  -8.465329  -31.198726  -3.452594  16.812802  60.504187  16.821286  46.042249  14.27441  -20.655789  -111.515125  68.51627  10.480493  -25.537914  11.940397  4.150117  1.993276  8.937941  3.15298  1.413716  
0.0  89.887642  0.0  6.316122  -35.276218  -104.329863  22.843928  -15.117553  10.10895  -1.00215  4.537614  23.502932  -1.131461  -1.862663  0.415205  3.911429  8.412116  -8.757546  1.391389  5.39487  18.98268  3.436803  1.678388  -0.77634  -2.061565  0.237883  1.939292  -5.612104  0.814362  5.276404  -5.612104  0.814362  5.276404  -31.826887  -0.294064  -5.700096  0.302252  62.168418  67.543266  -29.442627  -22.140851  111.068696  102.309582  -14.525107  -8.556365  -31.209493  -3.478105  16.782087  60.748873  17.026775  45.8188  14.036548  -20.512018  -111.422295  68.66526  10.215592  -25.393267  11.812538  4.146085  1.936708  8.842485  3.148411  1.372227  
0.0  89.887642  0.0  6.239409  -34.944897  -104.079468  22.809503  -15.238681  9.852235  -1.244248  4.740966  23.418155  -1.15209  -1.818256  0.437253  3.566589  8.446818  -8.964788  1.355332  5.461857  18.979863  3.539122  1.680727  -0.730371  -2.058257  0.23785  1.945112  -5.602988  0.814501  5.292351  -5.602988  0.814501  5.292351  -31.516368  -0.410322  -5.786035  0.001085  62.214709  67.435989  -29.296509  -22.056358  110.934301  102.32042  -14.495444  -8.797156  -31.226689  -3.605501  16.647494  60.405437  17.146302  45.133844  13.806296  -20.285407  -111.27589  69.040948  9.497818  -25.328654  11.666068  4.149019  1.814767  8.733481  3.147782  1.281695  
